<svg xmlns="http://www.w3.org/2000/svg" viewBox="0 0 243.4 136.8" width="243" height="137" role="img" aria-label="GSO Advogados">
  <path fill="#EDEAE3" d="M81.298828125 78.9609375Q77.9765625 80.84765625 71.373046875 82.3447265625Q64.76953125 83.841796875 58.78125 83.841796875Q43.318359375 83.841796875 34.91015625 76.1103515625Q26.501953125 68.37890625 26.501953125 54.43359375Q26.501953125 45.08203125 30.7470703125 37.822265625Q34.9921875 30.5625 42.703125 26.7890625Q50.4140625 23.015625 60.873046875 23.015625Q68.54296875 23.015625 77.23828125 25.189453125V40.65234375Q73.177734375 38.806640625 69.4453125 38.0888671875Q65.712890625 37.37109375 61.283203125 37.37109375Q53.982421875 37.37109375 49.6552734375 41.759765625Q45.328125 46.1484375 45.328125 53.818359375Q45.328125 61.16015625 48.9580078125 65.302734375Q52.587890625 69.4453125 59.109375 69.4453125Q62.14453125 69.4453125 63.580078125 69.1171875V60.708984375H52.30078125V47.296875H81.298828125Z M129.70703125 65.015625Q129.70703125 70.880859375 126.5693359375 75.228515625Q123.431640625 79.576171875 117.771484375 81.708984375Q112.111328125 83.841796875 104.154296875 83.841796875Q94.92578125 83.841796875 87.255859375 80.724609375V64.60546875Q90.947265625 67.3125 95.41796875 68.9736328125Q99.888671875 70.634765625 103.744140625 70.634765625Q106.65625 70.634765625 108.255859375 69.5888671875Q109.85546875 68.54296875 109.85546875 66.533203125Q109.85546875 65.09765625 109.0556640625 64.0107421875Q108.255859375 62.923828125 106.6357421875 61.98046875Q105.015625 61.037109375 100.626953125 59.396484375Q86.435546875 53.94140625 86.435546875 41.759765625Q86.435546875 33.228515625 92.916015625 28.1220703125Q99.396484375 23.015625 110.306640625 23.015625Q113.3828125 23.015625 115.966796875 23.26171875Q118.55078125 23.5078125 120.6630859375 23.876953125Q122.775390625 24.24609375 126.58984375 25.271484375V40.2421875Q119.166015625 36.181640625 111.98828125 36.181640625Q109.03515625 36.181640625 107.23046875 37.2890625Q105.42578125 38.396484375 105.42578125 40.32421875Q105.42578125 42.169921875 106.8818359375 43.3798828125Q108.337890625 44.58984375 112.97265625 46.517578125Q122.119140625 50.208984375 125.9130859375 54.59765625Q129.70703125 58.986328125 129.70703125 65.015625Z M190.830078125 53.244140625Q190.830078125 62.103515625 187.015625 69.0966796875Q183.201171875 76.08984375 176.3515625 79.9658203125Q169.501953125 83.841796875 161.01171875 83.841796875Q152.7265625 83.841796875 145.9384765625 80.0888671875Q139.150390625 76.3359375 135.376953125 69.5478515625Q131.603515625 62.759765625 131.603515625 54.1875Q131.603515625 45.205078125 135.41796875 38.02734375Q139.232421875 30.849609375 146.123046875 26.9326171875Q153.013671875 23.015625 161.791015625 23.015625Q170.240234375 23.015625 176.9052734375 26.7685546875Q183.5703125 30.521484375 187.2001953125 37.4736328125Q190.830078125 44.42578125 190.830078125 53.244140625ZM172.044921875 53.736328125Q172.044921875 46.4765625 169.255859375 42.29296875Q166.466796875 38.109375 161.626953125 38.109375Q156.3359375 38.109375 153.3828125 42.12890625Q150.4296875 46.1484375 150.4296875 53.490234375Q150.4296875 60.66796875 153.3623046875 64.6875Q156.294921875 68.70703125 161.33984375 68.70703125Q164.416015625 68.70703125 166.876953125 66.90234375Q169.337890625 65.09765625 170.69140625 61.734375Q172.044921875 58.37109375 172.044921875 53.736328125Z"/>
  <rect x="203.4" y="66.8" width="16" height="16" fill="#C29A63"/>
  <path fill="#9FA8B0" d="M76.7119140625 112.81640625H74.80029296875L73.85546875 110.14306640625H69.724609375L68.81640625 112.81640625H66.912109375L70.84521484375 102.3134765625H72.80810546875ZM73.39404296875 108.72216796875 71.9365234375 104.53271484375Q71.87060546875 104.32763671875 71.79736328125 103.87353515625H71.76806640625Q71.7021484375 104.291015625 71.62158203125 104.53271484375L70.1787109375 108.72216796875Z M85.65478515625 112.81640625V102.3134765625H88.68701171875Q94.4951171875 102.3134765625 94.4951171875 107.43310546875Q94.4951171875 109.86474609375 92.8837890625 111.340576171875Q91.2724609375 112.81640625 88.5625 112.81640625ZM87.390625 103.79296875V111.34423828125H88.7822265625Q90.62060546875 111.34423828125 91.642333984375 110.33349609375Q92.6640625 109.32275390625 92.6640625 107.47705078125Q92.6640625 103.79296875 88.84814453125 103.79296875Z M112.146484375 102.3134765625 108.37451171875 112.81640625H106.42626953125L102.72021484375 102.3134765625H104.62451171875L107.21728515625 110.2822265625Q107.341796875 110.6630859375 107.40771484375 111.16845703125H107.43701171875Q107.48828125 110.7509765625 107.6494140625 110.267578125L110.30078125 102.3134765625Z M125.36669921875 112.9921875Q123.09619140625 112.9921875 121.730224609375 111.52001953125Q120.3642578125 110.0478515625 120.3642578125 107.689453125Q120.3642578125 105.1552734375 121.755859375 103.646484375Q123.1474609375 102.1376953125 125.53515625 102.1376953125Q127.7470703125 102.1376953125 129.098388671875 103.6025390625Q130.44970703125 105.0673828125 130.44970703125 107.43310546875Q130.44970703125 110.00390625 129.0654296875 111.498046875Q127.68115234375 112.9921875 125.36669921875 112.9921875ZM125.447265625 103.66845703125Q124.00439453125 103.66845703125 123.099853515625 104.7451171875Q122.1953125 105.82177734375 122.1953125 107.57958984375Q122.1953125 109.330078125 123.07421875 110.3994140625Q123.953125 111.46875 125.3740234375 111.46875Q126.8828125 111.46875 127.75439453125 110.45068359375Q128.6259765625 109.4326171875 128.6259765625 107.6015625Q128.6259765625 105.71923828125 127.780029296875 104.69384765625Q126.93408203125 103.66845703125 125.447265625 103.66845703125Z M148.07177734375 112.0986328125Q146.43115234375 112.9921875 144.4169921875 112.9921875Q142.087890625 112.9921875 140.64501953125 111.5419921875Q139.2021484375 110.091796875 139.2021484375 107.7041015625Q139.2021484375 105.26513671875 140.780517578125 103.701416015625Q142.35888671875 102.1376953125 144.79052734375 102.1376953125Q146.541015625 102.1376953125 147.73486328125 102.650390625V104.44482421875Q146.5263671875 103.63916015625 144.8564453125 103.63916015625Q143.17919921875 103.63916015625 142.106201171875 104.7451171875Q141.033203125 105.85107421875 141.033203125 107.60888671875Q141.033203125 109.41796875 141.9560546875 110.454345703125Q142.87890625 111.49072265625 144.4609375 111.49072265625Q145.544921875 111.49072265625 146.3359375 111.0732421875V108.57568359375H144.1240234375V107.11083984375H148.07177734375Z M166.462890625 112.81640625H164.55126953125L163.6064453125 110.14306640625H159.4755859375L158.5673828125 112.81640625H156.6630859375L160.59619140625 102.3134765625H162.55908203125ZM163.14501953125 108.72216796875 161.6875 104.53271484375Q161.62158203125 104.32763671875 161.54833984375 103.87353515625H161.51904296875Q161.453125 104.291015625 161.37255859375 104.53271484375L159.9296875 108.72216796875Z M175.40576171875 112.81640625V102.3134765625H178.43798828125Q184.24609375 102.3134765625 184.24609375 107.43310546875Q184.24609375 109.86474609375 182.634765625 111.340576171875Q181.0234375 112.81640625 178.3134765625 112.81640625ZM177.1416015625 103.79296875V111.34423828125H178.533203125Q180.37158203125 111.34423828125 181.393310546875 110.33349609375Q182.4150390625 109.32275390625 182.4150390625 107.47705078125Q182.4150390625 103.79296875 178.59912109375 103.79296875Z M197.99365234375 112.9921875Q195.72314453125 112.9921875 194.357177734375 111.52001953125Q192.9912109375 110.0478515625 192.9912109375 107.689453125Q192.9912109375 105.1552734375 194.3828125 103.646484375Q195.7744140625 102.1376953125 198.162109375 102.1376953125Q200.3740234375 102.1376953125 201.725341796875 103.6025390625Q203.07666015625 105.0673828125 203.07666015625 107.43310546875Q203.07666015625 110.00390625 201.6923828125 111.498046875Q200.30810546875 112.9921875 197.99365234375 112.9921875ZM198.07421875 103.66845703125Q196.63134765625 103.66845703125 195.726806640625 104.7451171875Q194.822265625 105.82177734375 194.822265625 107.57958984375Q194.822265625 109.330078125 195.701171875 110.3994140625Q196.580078125 111.46875 198.0009765625 111.46875Q199.509765625 111.46875 200.38134765625 110.45068359375Q201.2529296875 109.4326171875 201.2529296875 107.6015625Q201.2529296875 105.71923828125 200.406982421875 104.69384765625Q199.56103515625 103.66845703125 198.07421875 103.66845703125Z M212.01953125 112.39892578125V110.6044921875Q212.26123046875 110.82421875 212.594482421875 111.0Q212.927734375 111.17578125 213.30126953125 111.296630859375Q213.6748046875 111.41748046875 214.04833984375 111.4833984375Q214.421875 111.54931640625 214.73681640625 111.54931640625Q215.83544921875 111.54931640625 216.373779296875 111.18310546875Q216.912109375 110.81689453125 216.912109375 110.12109375Q216.912109375 109.74755859375 216.732666015625 109.472900390625Q216.55322265625 109.1982421875 216.23095703125 108.97119140625Q215.90869140625 108.744140625 215.472900390625 108.535400390625Q215.037109375 108.32666015625 214.5390625 108.099609375Q214.00439453125 107.81396484375 213.54296875 107.52099609375Q213.08154296875 107.22802734375 212.740966796875 106.872802734375Q212.400390625 106.517578125 212.206298828125 106.07080078125Q212.01220703125 105.6240234375 212.01220703125 105.0234375Q212.01220703125 104.28369140625 212.345458984375 103.738037109375Q212.6787109375 103.1923828125 213.224365234375 102.837158203125Q213.77001953125 102.48193359375 214.4658203125 102.309814453125Q215.16162109375 102.1376953125 215.88671875 102.1376953125Q217.53466796875 102.1376953125 218.2890625 102.51123046875V104.232421875Q217.3955078125 103.587890625 215.9892578125 103.587890625Q215.60107421875 103.587890625 215.216552734375 103.6611328125Q214.83203125 103.734375 214.528076171875 103.90283203125Q214.22412109375 104.0712890625 214.03369140625 104.3349609375Q213.84326171875 104.5986328125 213.84326171875 104.97216796875Q213.84326171875 105.32373046875 213.98974609375 105.580078125Q214.13623046875 105.83642578125 214.418212890625 106.048828125Q214.7001953125 106.26123046875 215.106689453125 106.462646484375Q215.51318359375 106.6640625 216.0478515625 106.8984375Q216.59716796875 107.18408203125 217.084228515625 107.4990234375Q217.5712890625 107.81396484375 217.941162109375 108.19482421875Q218.31103515625 108.57568359375 218.527099609375 109.040771484375Q218.7431640625 109.505859375 218.7431640625 110.09912109375Q218.7431640625 110.8974609375 218.4208984375 111.44677734375Q218.0986328125 111.99609375 217.552978515625 112.34033203125Q217.00732421875 112.6845703125 216.296875 112.83837890625Q215.58642578125 112.9921875 214.79541015625 112.9921875Q214.53173828125 112.9921875 214.147216796875 112.951904296875Q213.7626953125 112.91162109375 213.35986328125 112.834716796875Q212.95703125 112.7578125 212.59814453125 112.64794921875Q212.2392578125 112.5380859375 212.01953125 112.39892578125Z"/>
</svg>
