<svg xmlns="http://www.w3.org/2000/svg" viewBox="18 14 163 78" width="326" height="156" role="img" aria-label="Símbolo GO Advogados">
  <path fill="#1C2127" d="M81.298828125 78.9609375Q77.9765625 80.84765625 71.373046875 82.3447265625Q64.76953125 83.841796875 58.78125 83.841796875Q43.318359375 83.841796875 34.91015625 76.1103515625Q26.501953125 68.37890625 26.501953125 54.43359375Q26.501953125 45.08203125 30.7470703125 37.822265625Q34.9921875 30.5625 42.703125 26.7890625Q50.4140625 23.015625 60.873046875 23.015625Q68.54296875 23.015625 77.23828125 25.189453125V40.65234375Q73.177734375 38.806640625 69.4453125 38.0888671875Q65.712890625 37.37109375 61.283203125 37.37109375Q53.982421875 37.37109375 49.6552734375 41.759765625Q45.328125 46.1484375 45.328125 53.818359375Q45.328125 61.16015625 48.9580078125 65.302734375Q52.587890625 69.4453125 59.109375 69.4453125Q62.14453125 69.4453125 63.580078125 69.1171875V60.708984375H52.30078125V47.296875H81.298828125Z"/>
  <g transform="translate(-45.2,0)">
    <path fill="#1C2127" d="M190.830078125 53.244140625Q190.830078125 62.103515625 187.015625 69.0966796875Q183.201171875 76.08984375 176.3515625 79.9658203125Q169.501953125 83.841796875 161.01171875 83.841796875Q152.7265625 83.841796875 145.9384765625 80.0888671875Q139.150390625 76.3359375 135.376953125 69.5478515625Q131.603515625 62.759765625 131.603515625 54.1875Q131.603515625 45.205078125 135.41796875 38.02734375Q139.232421875 30.849609375 146.123046875 26.9326171875Q153.013671875 23.015625 161.791015625 23.015625Q170.240234375 23.015625 176.9052734375 26.7685546875Q183.5703125 30.521484375 187.2001953125 37.4736328125Q190.830078125 44.42578125 190.830078125 53.244140625ZM172.044921875 53.736328125Q172.044921875 46.4765625 169.255859375 42.29296875Q166.466796875 38.109375 161.626953125 38.109375Q156.3359375 38.109375 153.3828125 42.12890625Q150.4296875 46.1484375 150.4296875 53.490234375Q150.4296875 60.66796875 153.3623046875 64.6875Q156.294921875 68.70703125 161.33984375 68.70703125Q164.416015625 68.70703125 166.876953125 66.90234375Q169.337890625 65.09765625 170.69140625 61.734375Q172.044921875 58.37109375 172.044921875 53.736328125Z"/>
    <rect x="203.4" y="66.8" width="16" height="16" fill="#A57B45"/>
  </g>
</svg>
