<svg xmlns="http://www.w3.org/2000/svg" viewBox="0 0 512 512" width="512" height="512" role="img" aria-label="Símbolo GSO">
  <path fill="#1C2127" d="M297.46484375 329.0078125Q287.97265625 334.3984375 269.10546875 338.67578125Q250.23828125 342.953125 233.12890625 342.953125Q188.94921875 342.953125 164.92578125 320.86328125Q140.90234375 298.7734375 140.90234375 258.9296875Q140.90234375 232.2109375 153.03125 211.46875Q165.16015625 190.7265625 187.19140625 179.9453125Q209.22265625 169.1640625 239.10546875 169.1640625Q261.01953125 169.1640625 285.86328125 175.375V219.5546875Q274.26171875 214.28125 263.59765625 212.23046875Q252.93359375 210.1796875 240.27734375 210.1796875Q219.41796875 210.1796875 207.0546875 222.71875Q194.69140625 235.2578125 194.69140625 257.171875Q194.69140625 278.1484375 205.0625 289.984375Q215.43359375 301.8203125 234.06640625 301.8203125Q242.73828125 301.8203125 246.83984375 300.8828125V276.859375H214.61328125V238.5390625H297.46484375Z"/>
  <rect x="328.2" y="290.0" width="50" height="50" fill="#A57B45"/>
</svg>
